<svg width="2618" height="2222" viewBox="0 0 2618 2222" fill="none" xmlns="http://www.w3.org/2000/svg" xmlns:xlink="http://www.w3.org/1999/xlink">
<path d="M253.857,708L1163.412,808.721L2148,808.721L2103.814,1236L198,1236L253.857,708Z" fill="url(#pattern_0_1_12)"/>
<path d="M1921.39,1229.936C2028.33,1185.472 2153.528,1145.11 2242.952,1239.333C2338.342,1339.843 2390.264,1531.036 2362.574,1694.804C2337.258,1844.542 2202.11,1875.546 2118.692,1974.268C2049.208,2056.5 2007.574,2256.26 1921.39,2216.928C1827.074,2173.882 1899.346,1922.61 1820.252,1838.062C1709.532,1719.708 1468.99,1884.528 1432.945,1694.804C1400.64,1524.768 1642.588,1544.258 1745.774,1446.054C1812.686,1382.37 1844.04,1262.098 1921.39,1229.936Z" clip-rule="evenodd" fill-rule="evenodd" fill="#C4C4C4"/>
<path d="M1921.39,1229.936C2028.33,1185.472 2153.528,1145.11 2242.952,1239.333C2338.342,1339.843 2390.264,1531.036 2362.574,1694.804C2337.258,1844.542 2202.11,1875.546 2118.692,1974.268C2049.208,2056.5 2007.574,2256.26 1921.39,2216.928C1827.074,2173.882 1899.346,1922.61 1820.252,1838.062C1709.532,1719.708 1468.99,1884.528 1432.945,1694.804C1400.64,1524.768 1642.588,1544.258 1745.774,1446.054C1812.686,1382.37 1844.04,1262.098 1921.39,1229.936Z" clip-rule="evenodd" fill-rule="evenodd" fill="url(#pattern_1_19_13)"/>
<path d="M397.172,122.82C488.816,112.089 562.79,208.743 610.634,293.406C649.09,361.456 623.94,443.146 623.184,522.752C622.442,600.87 656.994,691.442 606.322,747.468C555.498,803.66 469.99,768.342 397.172,772.638C316.396,777.404 233.454,817.636 163.715,773.582C78.812,719.95 -13.298,627.356 1.596,522.752C16.382,418.906 154.456,410.478 225.666,338.484C292.294,271.122 306.222,133.47 397.172,122.82Z" clip-rule="evenodd" fill-rule="evenodd" fill="#C4C4C4"/>
<path d="M397.172,122.82C488.816,112.089 562.79,208.743 610.634,293.406C649.09,361.456 623.94,443.146 623.184,522.752C622.442,600.87 656.994,691.442 606.322,747.468C555.498,803.66 469.99,768.342 397.172,772.638C316.396,777.404 233.454,817.636 163.715,773.582C78.812,719.95 -13.298,627.356 1.596,522.752C16.382,418.906 154.456,410.478 225.666,338.484C292.294,271.122 306.222,133.47 397.172,122.82Z" clip-rule="evenodd" fill-rule="evenodd" fill="url(#pattern_1_19_11)"/>
<path d="M2129.92,3.921C2233.37,-22.744 2314.944,92.704 2395.466,165.323C2485.686,246.688 2641.092,320.274 2615.112,441.494C2588.076,567.642 2393.674,533.682 2298.664,616.99C2220.868,685.206 2228.656,841.338 2129.92,866.93C2026.124,893.836 1928.214,808.434 1849.136,733.512C1765.284,654.068 1650.922,555.272 1680.881,441.494C1711.115,326.668 1886.326,356.428 1969.858,275.028C2047.21,199.652 2027.034,30.441 2129.92,3.921Z" clip-rule="evenodd" fill-rule="evenodd" fill="#C4C4C4"/>
<path d="M2129.92,3.921C2233.37,-22.744 2314.944,92.704 2395.466,165.323C2485.686,246.688 2641.092,320.274 2615.112,441.494C2588.076,567.642 2393.674,533.682 2298.664,616.99C2220.868,685.206 2228.656,841.338 2129.92,866.93C2026.124,893.836 1928.214,808.434 1849.136,733.512C1765.284,654.068 1650.922,555.272 1680.881,441.494C1711.115,326.668 1886.326,356.428 1969.858,275.028C2047.21,199.652 2027.034,30.441 2129.92,3.921Z" clip-rule="evenodd" fill-rule="evenodd" fill="url(#pattern_1_19_17)"/>
</svg>
