<svg width="902" height="828" viewBox="0 0 902 828" fill="none" xmlns="http://www.w3.org/2000/svg" xmlns:xlink="http://www.w3.org/1999/xlink">
<path d="M468.388,7.761C542.814,-12.813 635.286,9.359 694.314,52.558C754.38,96.517 742.148,178.383 781.168,236.666C813.042,284.272 902.414,308.166 901.998,362.752C901.548,422.06 793.732,447.084 779.128,505.118C764.148,564.654 841.652,623.292 821.712,681.798C802.358,738.586 739.71,781.688 676.164,807.23C612.64,832.764 538.462,829.958 468.388,823.814C402.064,817.998 340.478,797.056 280.548,772.544C220.828,748.118 161.942,721.56 117.384,680.248C71.57,637.772 37.456,586.812 20.419,531.364C3.177,475.25 -14.558,410.426 18.897,359.714C53.398,307.416 141.928,302.388 196.712,264.132C239.276,234.41 267.618,195.059 304.406,160.343C359.33,108.513 389.836,29.476 468.388,7.761Z" clip-rule="evenodd" fill-rule="evenodd" fill="#C4C4C4"/>
<path d="M468.388,7.761C542.814,-12.813 635.286,9.359 694.314,52.558C754.38,96.517 742.148,178.383 781.168,236.666C813.042,284.272 902.414,308.166 901.998,362.752C901.548,422.06 793.732,447.084 779.128,505.118C764.148,564.654 841.652,623.292 821.712,681.798C802.358,738.586 739.71,781.688 676.164,807.23C612.64,832.764 538.462,829.958 468.388,823.814C402.064,817.998 340.478,797.056 280.548,772.544C220.828,748.118 161.942,721.56 117.384,680.248C71.57,637.772 37.456,586.812 20.419,531.364C3.177,475.25 -14.558,410.426 18.897,359.714C53.398,307.416 141.928,302.388 196.712,264.132C239.276,234.41 267.618,195.059 304.406,160.343C359.33,108.513 389.836,29.476 468.388,7.761Z" clip-rule="evenodd" fill-rule="evenodd" fill="url(#pattern_1_22_38)"/>
</svg>
