<svg width="918" height="872" viewBox="0 0 918 872" fill="none" xmlns="http://www.w3.org/2000/svg" xmlns:xlink="http://www.w3.org/1999/xlink">
<path d="M464.02,11.633C528.322,0.288 604.022,-12.604 657,25.324C711.694,64.484 693.266,156.117 737.004,207.078C782.832,260.472 885.62,256.558 911.492,321.84C936.138,384.028 884.734,451.214 858.078,512.578C834.482,566.9 795.096,610.398 764.184,660.97C729.07,718.418 718.516,794.834 662.5,832.544C606.382,870.322 529.058,882.048 464.02,863.038C399.286,844.116 377.51,755.72 314.822,730.92C245.33,703.426 147.291,768.354 93.697,716.532C43.133,667.638 101.448,577.326 85.402,509.078C69.252,440.388 -1.338,388.618 0.019,318.094C1.385,247.18 36.082,172.435 92.715,129.217C149.679,85.746 233.016,109.728 301.46,88.053C359.304,69.736 404.244,22.18 464.02,11.633Z" clip-rule="evenodd" fill-rule="evenodd" fill="#C4C4C4"/>
<path d="M464.02,11.633C528.322,0.288 604.022,-12.604 657,25.324C711.694,64.484 693.266,156.117 737.004,207.078C782.832,260.472 885.62,256.558 911.492,321.84C936.138,384.028 884.734,451.214 858.078,512.578C834.482,566.9 795.096,610.398 764.184,660.97C729.07,718.418 718.516,794.834 662.5,832.544C606.382,870.322 529.058,882.048 464.02,863.038C399.286,844.116 377.51,755.72 314.822,730.92C245.33,703.426 147.291,768.354 93.697,716.532C43.133,667.638 101.448,577.326 85.402,509.078C69.252,440.388 -1.338,388.618 0.019,318.094C1.385,247.18 36.082,172.435 92.715,129.217C149.679,85.746 233.016,109.728 301.46,88.053C359.304,69.736 404.244,22.18 464.02,11.633Z" clip-rule="evenodd" fill-rule="evenodd" fill="url(#pattern_1_31_81)"/>
</svg>
