<svg width="790" height="854" viewBox="0 0 790 854" fill="none" xmlns="http://www.w3.org/2000/svg" xmlns:xlink="http://www.w3.org/1999/xlink">
<path d="M376.42,4.811C431.06,-9.303 488.376,10.131 541.14,30.874C596.732,52.728 649.836,82.931 691.03,128.491C733.95,175.958 769.814,233.256 782.588,297.9C795.306,362.26 793.452,434.62 762.79,491.624C732.714,547.536 646.84,546.884 618.142,603.62C580.436,678.16 656.938,828.592 580.734,851.538C495.69,877.146 463.034,695.016 376.42,676.406C313.438,662.876 271.274,783.968 208.106,771.482C152.135,760.418 125.536,682.838 110.92,623.928C97.336,569.176 146.258,511.342 130.173,457.372C111.849,395.892 34.074,371.314 17.169,309.368C-0.998,242.792 -16.023,148.83 33.928,104.679C89.138,55.878 176.912,127.257 245.984,107.117C298.644,91.762 323.366,18.516 376.42,4.811Z" clip-rule="evenodd" fill-rule="evenodd" fill="url(#pattern_0_56_46)"/>
</svg>
