<svg width="594" height="620" viewBox="0 0 594 620" fill="none" xmlns="http://www.w3.org/2000/svg" xmlns:xlink="http://www.w3.org/1999/xlink">
<path d="M286.44,7.484C391.776,1.566 541.72,-20.96 584.774,58.51C631.19,144.186 489.522,217.298 447.322,304.442C430.334,339.522 432.742,375.38 414.54,410.042C376.658,482.178 376.144,584.15 286.44,610.802C191.914,638.886 65.59,600.116 13.963,529.058C-35.358,461.174 61.657,383.55 63.856,304.442C65.943,229.34 -21.732,153.797 26.17,89.889C76.953,22.137 190.05,12.898 286.44,7.484Z" clip-rule="evenodd" fill-rule="evenodd" fill="#C4C4C4"/>
<path d="M286.44,7.484C391.776,1.566 541.72,-20.96 584.774,58.51C631.19,144.186 489.522,217.298 447.322,304.442C430.334,339.522 432.742,375.38 414.54,410.042C376.658,482.178 376.144,584.15 286.44,610.802C191.914,638.886 65.59,600.116 13.963,529.058C-35.358,461.174 61.657,383.55 63.856,304.442C65.943,229.34 -21.732,153.797 26.17,89.889C76.953,22.137 190.05,12.898 286.44,7.484Z" clip-rule="evenodd" fill-rule="evenodd" fill="url(#pattern_1_19_12)"/>
</svg>
