<svg width="744" height="714" viewBox="0 0 744 714" fill="none" xmlns="http://www.w3.org/2000/svg" xmlns:xlink="http://www.w3.org/1999/xlink">
<path d="M356.756,16.976C411.482,10.664 478.492,-18.2 519.978,17.595C566.078,57.373 519.43,146.903 559.9,192.26C603.62,241.256 718.87,204.106 741.226,265.558C762.042,322.78 659.468,358.198 641.41,416.324C625.162,468.624 670.17,530.114 644.05,578.36C618.524,625.508 557.144,639.754 508.132,662.494C459.448,685.084 410.246,706.034 356.756,711.662C300.198,717.61 243.5,712.136 189.003,696.062C129.367,678.474 59.087,664.826 24.584,613.688C-10.274,562.022 -0.997,491.538 9.747,430.374C18.923,378.134 75.956,342.892 81.414,290.148C87.963,226.86 12.763,161.456 43.367,105.471C71.536,53.943 153.896,69.345 210.922,53.242C259.73,39.459 306.332,22.792 356.756,16.976Z" clip-rule="evenodd" fill-rule="evenodd" fill="url(#pattern_0_56_32)"/>
</svg>
